<?xml version="1.0" encoding="UTF-8" standalone="no"?><!DOCTYPE svg PUBLIC "-//W3C//DTD SVG 1.1//EN" "http://www.w3.org/Graphics/SVG/1.1/DTD/svg11.dtd"><!-- Generated by graphviz version 2.40.1 (20161225.0304)
 --><!-- Title: %0 Pages: 1 --><svg xmlns="http://www.w3.org/2000/svg" xmlns:xlink="http://www.w3.org/1999/xlink" width="335pt" height="234pt" viewBox="0.00 0.00 335.07 233.89">
<g id="graph0" class="graph" transform="scale(1 1) rotate(0) translate(4 229.8913)">
<title>%0</title>
<polygon fill="#ffffff" stroke="transparent" points="-4,4 -4,-229.8913 331.0672,-229.8913 331.0672,4 -4,4"/>
<!-- 0 -->
<g id="node1" class="node">
<title>0</title>
<ellipse fill="none" stroke="#000000" cx="27" cy="-111.7386" rx="27" ry="18"/>
<text text-anchor="middle" x="27" y="-107.5386" font-family="Times,serif" font-size="14.00" fill="#000000">0</text>
</g>
<!-- 1 -->
<g id="node2" class="node">
<title>1</title>
<ellipse fill="none" stroke="#000000" cx="249.1243" cy="-108.8994" rx="27" ry="18"/>
<text text-anchor="middle" x="249.1243" y="-104.6994" font-family="Times,serif" font-size="14.00" fill="#000000">1</text>
</g>
<!-- 0&#45;&gt;1 -->
<g id="edge1" class="edge">
<title>0-&gt;1</title>
<path fill="none" stroke="#000000" d="M54.2368,-111.3904C93.8116,-110.8846 167.3355,-109.9448 211.8883,-109.3753"/>
<polygon fill="#000000" stroke="#000000" points="212.0581,-112.8735 222.0125,-109.2459 211.9685,-105.8741 212.0581,-112.8735"/>
</g>
<!-- 2 -->
<g id="node3" class="node">
<title>2</title>
<ellipse fill="none" stroke="#000000" cx="300.0672" cy="-18" rx="27" ry="18"/>
<text text-anchor="middle" x="300.0672" y="-13.8" font-family="Times,serif" font-size="14.00" fill="#000000">2</text>
</g>
<!-- 1&#45;&gt;2 -->
<g id="edge2" class="edge">
<title>1-&gt;2</title>
<path fill="none" stroke="#000000" d="M258.7063,-91.8019C266.2487,-78.3437 276.8859,-59.3633 285.484,-44.0213"/>
<polygon fill="#000000" stroke="#000000" points="288.6925,-45.4554 290.5282,-35.0208 282.5861,-42.0331 288.6925,-45.4554"/>
</g>
<!-- 3 -->
<g id="node4" class="node">
<title>3</title>
<ellipse fill="none" stroke="#000000" cx="250.3896" cy="-207.8913" rx="27" ry="18"/>
<text text-anchor="middle" x="250.3896" y="-203.6913" font-family="Times,serif" font-size="14.00" fill="#000000">3</text>
</g>
<!-- 3&#45;&gt;1 -->
<g id="edge3" class="edge">
<title>3-&gt;1</title>
<path fill="none" stroke="#000000" d="M250.1575,-189.7346C249.9702,-175.0828 249.7034,-154.2067 249.4878,-137.34"/>
<polygon fill="#000000" stroke="#000000" points="252.9825,-136.8953 249.3549,-126.9409 245.9831,-136.9849 252.9825,-136.8953"/>
</g>
<!-- 4 -->
<g id="node5" class="node">
<title>4</title>
<ellipse fill="none" stroke="#000000" cx="195.8746" cy="-19.3318" rx="27" ry="18"/>
<text text-anchor="middle" x="195.8746" y="-15.1318" font-family="Times,serif" font-size="14.00" fill="#000000">4</text>
</g>
<!-- 4&#45;&gt;1 -->
<g id="edge4" class="edge">
<title>4-&gt;1</title>
<path fill="none" stroke="#000000" d="M205.8904,-36.1788C213.7744,-49.4398 224.8933,-68.1421 233.8808,-83.2593"/>
<polygon fill="#000000" stroke="#000000" points="231.0345,-85.3209 239.1533,-92.1279 237.0515,-81.7437 231.0345,-85.3209"/>
</g>
<!-- 4&#45;&gt;2 -->
<g id="edge5" class="edge">
<title>4-&gt;2</title>
<path fill="none" stroke="#000000" d="M222.978,-18.9854C235.0627,-18.8309 249.4989,-18.6464 262.5938,-18.479"/>
<polygon fill="#000000" stroke="#000000" points="262.7832,-21.9769 272.7376,-18.3493 262.6936,-14.9775 262.7832,-21.9769"/>
</g>
</g>
</svg>